<?xml version="1.0" encoding="UTF-8"?>
<svg height="600" width="800" xmlns="http://www.w3.org/2000/svg" xmlns:xlink="http://www.w3.org/1999/xlink">
    <g id="Notes" font-family="'LucidaGrande', 'Lucida Grande', sans-serif" font-size="13">
        <rect fill="white" height="600.0" width="800.0" x="0.0" y="0.0" />
        <g font-size="13">
            <text x="18.0" y="176.0">Small</text>
            <text x="18.0" y="376.0">Medium</text>
            <text x="18.0" y="576.0">Large</text>
        </g>
        <g font-size="9">
            <text x="250.0" y="30.0">Ultralight</text>
            <text x="450.0" y="30.0">Regular</text>
            <text x="650.0" y="30.0">Black</text>
            <text id="template-version" fill="#505050" text-anchor="end" x="785.0" y="575.0">Template v.3.0</text>
            <a href="https://wangchujiang.com/#/app">
                <text fill="#505050" text-anchor="end" x="785.0" y="590.0">https://wangchujiang.com/#/app</text>
            </a>
        </g>
    </g>
    <g id="Guides" stroke="rgb(39, 170, 225)" stroke-width="0.5">
        <path id="Capline-S" d="M18,76 l800,0" />
        <path id="H-reference" d="M85,145.755 L87.685,145.755 L113.369,79.287 L114.052,79.287 L114.052,76 L112.148,76 L85,145.755 Z M95.693,121.536 L130.996,121.536 L130.263,119.313 L96.474,119.313 L95.693,121.536 Z M139.15,145.755 L141.787,145.755 L114.638,76 L113.466,76 L113.466,79.287 L139.15,145.755 Z" stroke="none" />
        <path id="Baseline-S" d="M18,146 l800,0" />
        <path id="left-margin-Ultralight-S" d="M220.007,56 l0,110" />
        <path id="right-margin-Ultralight-S" d="M309.993,56 l0,110" />
        <path id="left-margin-Regular-S" d="M420.007,56 l0,110" />
        <path id="right-margin-Regular-S" d="M509.993,56 l0,110" />
        <path id="left-margin-Black-S" d="M620.007,56 l0,110" />
        <path id="right-margin-Black-S" d="M709.993,56 l0,110" />
        <path id="Capline-M" d="M18,276 l800,0" />
        <path id="Baseline-M" d="M18,346 l800,0" />
        <path id="Capline-L" d="M18,476 l800,0" />
        <path id="Baseline-L" d="M18,546 l800,0" />
    </g>
    <g id="Symbols">
        <g id="Ultralight-S">
            <path d="M266.919,77.082 C268.169,79.278 269.413,81.479 270.654,83.684 C270.756,83.863 270.947,83.974 271.154,83.973 L288.817,83.973 C289.371,83.973 289.842,84.323 290.236,85.014 L294.862,93.19 C295.467,94.263 295.626,94.711 294.939,95.853 C294.111,97.221 293.307,98.602 292.521,99.989 L291.353,102.083 C291.016,102.706 290.644,102.974 291.226,103.712 L299.663,118.464 C300.21,119.422 300.016,120.036 299.526,120.914 C298.136,123.412 296.72,125.89 295.279,128.359 C294.773,129.224 294.159,129.552 293.116,129.536 C290.644,129.485 288.178,129.504 285.712,129.587 C285.605,129.593 285.508,129.653 285.455,129.746 C282.609,134.788 279.739,139.817 276.845,144.832 C276.308,145.764 275.636,145.987 274.539,145.99 C271.367,146 268.169,146.003 264.94,145.997 C264.328,145.995 263.764,145.666 263.461,145.134 L259.213,137.744 C259.163,137.645 259.06,137.584 258.949,137.588 L242.669,137.588 C241.763,137.683 240.91,137.585 240.108,137.295 L235.008,128.482 C234.701,127.951 234.699,127.298 235.002,126.764 L238.842,120.019 C238.953,119.825 238.953,119.587 238.842,119.393 C236.844,115.934 234.858,112.468 232.884,108.996 L230.371,104.558 C229.862,103.572 229.82,102.98 230.673,101.488 C232.152,98.901 233.622,96.318 235.086,93.737 C235.506,92.993 236.053,92.675 236.944,92.672 C239.689,92.66 242.433,92.659 245.178,92.668 C245.319,92.667 245.449,92.591 245.519,92.468 L254.446,76.894 C254.721,76.412 255.233,76.114 255.789,76.112 C257.456,76.108 259.139,76.112 260.825,76.093 L264.056,76.001 C265.14,75.991 266.359,76.102 266.919,77.082 Z M256,78.364 C255.932,78.364 255.869,78.401 255.834,78.46 L246.716,94.415 C246.627,94.568 246.464,94.663 246.287,94.663 L237.168,94.663 C236.99,94.663 236.946,94.743 237.038,94.899 L255.523,127.21 C255.602,127.344 255.564,127.408 255.415,127.411 L246.522,127.459 C246.257,127.45 246.01,127.593 245.886,127.828 L241.686,135.177 C241.546,135.425 241.619,135.552 241.903,135.552 L260.088,135.578 C260.235,135.578 260.343,135.642 260.419,135.772 L264.883,143.579 C265.029,143.837 265.175,143.84 265.325,143.579 L281.252,115.709 L283.743,111.312 C283.774,111.257 283.832,111.223 283.896,111.223 C283.959,111.223 284.017,111.257 284.048,111.312 L288.579,119.362 C288.648,119.484 288.778,119.56 288.919,119.559 L297.71,119.495 C297.756,119.496 297.798,119.471 297.821,119.432 C297.843,119.392 297.843,119.344 297.821,119.304 L288.595,103.123 C288.527,103.013 288.527,102.874 288.595,102.764 L289.527,101.151 L293.09,94.861 C293.167,94.73 293.128,94.663 292.979,94.663 L256.089,94.663 C255.901,94.663 255.857,94.581 255.952,94.418 L260.514,86.449 C260.584,86.338 260.584,86.197 260.514,86.086 L256.169,78.463 C256.135,78.402 256.07,78.364 256,78.364 Z M276.012,103.88 C276.158,103.88 276.196,103.944 276.12,104.071 L273.473,108.732 L265.16,123.319 C265.128,123.377 265.066,123.413 265,123.412 C264.935,123.411 264.874,123.376 264.841,123.319 L253.856,104.128 C253.792,104.02 253.824,103.963 253.945,103.957 L254.632,103.918 L276.018,103.88 Z" />
        </g>
        <g id="Regular-S">
            <path d="M466.919,77.082 C468.169,79.278 469.413,81.479 470.654,83.684 C470.756,83.863 470.947,83.974 471.154,83.973 L488.817,83.973 C489.371,83.973 489.842,84.323 490.236,85.014 L494.862,93.19 C495.467,94.263 495.626,94.711 494.939,95.853 C494.112,97.221 493.307,98.602 492.521,99.989 L491.353,102.083 C491.016,102.706 490.644,102.974 491.226,103.712 L499.663,118.464 C500.211,119.422 500.016,120.036 499.526,120.914 C498.136,123.412 496.72,125.89 495.279,128.359 C494.773,129.224 494.159,129.552 493.116,129.536 C490.644,129.485 488.178,129.504 485.712,129.587 C485.605,129.593 485.508,129.653 485.455,129.746 C482.609,134.788 479.739,139.817 476.845,144.832 C476.308,145.764 475.636,145.987 474.539,145.99 C471.367,146 468.169,146.003 464.94,145.997 C464.328,145.995 463.764,145.666 463.461,145.134 L459.213,137.744 C459.163,137.645 459.06,137.584 458.949,137.588 L442.669,137.588 C441.763,137.683 440.91,137.585 440.108,137.295 L435.008,128.482 C434.701,127.951 434.699,127.298 435.002,126.764 L438.842,120.019 C438.953,119.825 438.953,119.587 438.842,119.393 C436.844,115.934 434.858,112.468 432.884,108.996 L430.371,104.558 C429.862,103.572 429.82,102.98 430.673,101.488 C432.152,98.901 433.622,96.318 435.086,93.737 C435.506,92.993 436.053,92.675 436.944,92.672 C439.689,92.66 442.434,92.659 445.178,92.668 C445.319,92.667 445.449,92.591 445.519,92.468 L454.446,76.894 C454.721,76.412 455.233,76.114 455.789,76.112 C457.456,76.108 459.139,76.112 460.825,76.093 L464.056,76.001 C465.14,75.991 466.359,76.102 466.919,77.082 Z M456,78.364 C455.932,78.364 455.869,78.401 455.834,78.46 L446.716,94.415 C446.627,94.568 446.464,94.663 446.287,94.663 L437.168,94.663 C436.99,94.663 436.946,94.743 437.038,94.899 L455.523,127.21 C455.602,127.344 455.564,127.408 455.415,127.411 L446.522,127.459 C446.257,127.45 446.01,127.593 445.886,127.828 L441.686,135.177 C441.546,135.425 441.619,135.552 441.903,135.552 L460.088,135.578 C460.235,135.578 460.343,135.642 460.419,135.772 L464.883,143.579 C465.029,143.837 465.175,143.84 465.325,143.579 L481.252,115.709 L483.743,111.312 C483.774,111.257 483.832,111.223 483.896,111.223 C483.959,111.223 484.017,111.257 484.048,111.312 L488.579,119.362 C488.648,119.484 488.778,119.56 488.919,119.559 L497.71,119.495 C497.756,119.496 497.798,119.471 497.821,119.432 C497.843,119.392 497.843,119.344 497.821,119.304 L488.595,103.123 C488.527,103.013 488.527,102.874 488.595,102.764 L489.527,101.151 L493.09,94.861 C493.167,94.73 493.128,94.663 492.979,94.663 L456.089,94.663 C455.901,94.663 455.857,94.581 455.952,94.418 L460.515,86.449 C460.584,86.338 460.584,86.197 460.515,86.086 L456.169,78.463 C456.135,78.402 456.07,78.364 456,78.364 Z M476.012,103.88 C476.158,103.88 476.196,103.944 476.12,104.071 L473.473,108.732 L465.16,123.319 C465.128,123.377 465.067,123.413 465,123.412 C464.935,123.411 464.874,123.376 464.841,123.319 L453.856,104.128 C453.792,104.02 453.824,103.963 453.945,103.957 L454.632,103.918 L476.018,103.88 Z" />
        </g>
        <g id="Black-S">
            <path d="M666.919,77.082 C668.169,79.278 669.413,81.479 670.654,83.684 C670.756,83.863 670.947,83.974 671.154,83.973 L688.817,83.973 C689.371,83.973 689.842,84.323 690.236,85.014 L694.862,93.19 C695.467,94.263 695.626,94.711 694.939,95.853 C694.112,97.221 693.307,98.602 692.521,99.989 L691.353,102.083 C691.016,102.706 690.644,102.974 691.226,103.712 L699.663,118.464 C700.211,119.422 700.016,120.036 699.526,120.914 C698.136,123.412 696.72,125.89 695.279,128.359 C694.773,129.224 694.159,129.552 693.116,129.536 C690.644,129.485 688.178,129.504 685.712,129.587 C685.605,129.593 685.508,129.653 685.455,129.746 C682.609,134.788 679.739,139.817 676.845,144.832 C676.308,145.764 675.636,145.987 674.539,145.99 C671.367,146 668.169,146.003 664.94,145.997 C664.328,145.995 663.764,145.666 663.461,145.134 L659.213,137.744 C659.163,137.645 659.06,137.584 658.949,137.588 L642.669,137.588 C641.763,137.683 640.91,137.585 640.108,137.295 L635.008,128.482 C634.701,127.951 634.699,127.298 635.002,126.764 L638.842,120.019 C638.953,119.825 638.953,119.587 638.842,119.393 C636.844,115.934 634.858,112.468 632.884,108.996 L630.371,104.558 C629.862,103.572 629.82,102.98 630.673,101.488 C632.152,98.901 633.622,96.318 635.086,93.737 C635.506,92.993 636.053,92.675 636.944,92.672 C639.689,92.66 642.434,92.659 645.178,92.668 C645.319,92.667 645.449,92.591 645.519,92.468 L654.446,76.894 C654.721,76.412 655.233,76.114 655.789,76.112 C657.456,76.108 659.139,76.112 660.825,76.093 L664.056,76.001 C665.141,75.991 666.359,76.102 666.919,77.082 Z M656,78.364 C655.932,78.364 655.869,78.401 655.834,78.46 L646.716,94.415 C646.627,94.568 646.464,94.663 646.287,94.663 L637.168,94.663 C636.99,94.663 636.946,94.743 637.038,94.899 L655.523,127.21 C655.602,127.344 655.564,127.408 655.415,127.411 L646.522,127.459 C646.257,127.45 646.01,127.593 645.886,127.828 L641.686,135.177 C641.546,135.425 641.619,135.552 641.903,135.552 L660.088,135.578 C660.235,135.578 660.343,135.642 660.419,135.772 L664.883,143.579 C665.029,143.837 665.175,143.84 665.325,143.579 L681.252,115.709 L683.743,111.312 C683.774,111.257 683.832,111.223 683.896,111.223 C683.959,111.223 684.017,111.257 684.048,111.312 L688.579,119.362 C688.648,119.484 688.778,119.56 688.919,119.559 L697.71,119.495 C697.756,119.496 697.798,119.471 697.821,119.432 C697.843,119.392 697.843,119.344 697.821,119.304 L688.595,103.123 C688.527,103.013 688.527,102.874 688.595,102.764 L689.527,101.151 L693.09,94.861 C693.167,94.73 693.128,94.663 692.979,94.663 L656.089,94.663 C655.901,94.663 655.857,94.581 655.952,94.418 L660.515,86.449 C660.584,86.338 660.584,86.197 660.515,86.086 L656.169,78.463 C656.135,78.402 656.07,78.364 656,78.364 Z M676.012,103.88 C676.158,103.88 676.196,103.944 676.12,104.071 L673.473,108.732 L665.16,123.319 C665.128,123.377 665.067,123.413 665,123.412 C664.935,123.411 664.874,123.376 664.841,123.319 L653.856,104.128 C653.792,104.02 653.824,103.963 653.945,103.957 L654.632,103.918 L676.018,103.88 Z" />
        </g>
    </g>
</svg>