<?xml version="1.0" encoding="UTF-8"?>
<svg height="600" width="800" xmlns="http://www.w3.org/2000/svg" xmlns:xlink="http://www.w3.org/1999/xlink">
    <g id="Notes" font-family="'LucidaGrande', 'Lucida Grande', sans-serif" font-size="13">
        <rect fill="white" height="600.0" width="800.0" x="0.0" y="0.0" />
        <g font-size="13">
            <text x="18.0" y="176.0">Small</text>
            <text x="18.0" y="376.0">Medium</text>
            <text x="18.0" y="576.0">Large</text>
        </g>
        <g font-size="9">
            <text x="250.0" y="30.0">Ultralight</text>
            <text x="450.0" y="30.0">Regular</text>
            <text x="650.0" y="30.0">Black</text>
            <text id="template-version" fill="#505050" text-anchor="end" x="785.0" y="575.0">Template v.3.0</text>
            <a href="https://wangchujiang.com/#/app">
                <text fill="#505050" text-anchor="end" x="785.0" y="590.0">https://wangchujiang.com/#/app</text>
            </a>
        </g>
    </g>
    <g id="Guides" stroke="rgb(39, 170, 225)" stroke-width="0.5">
        <path id="Capline-S" d="M18,76 l800,0" />
        <path id="H-reference" d="M85,145.755 L87.685,145.755 L113.369,79.287 L114.052,79.287 L114.052,76 L112.148,76 L85,145.755 Z M95.693,121.536 L130.996,121.536 L130.263,119.313 L96.474,119.313 L95.693,121.536 Z M139.15,145.755 L141.787,145.755 L114.638,76 L113.466,76 L113.466,79.287 L139.15,145.755 Z" stroke="none" />
        <path id="Baseline-S" d="M18,146 l800,0" />
        <path id="left-margin-Ultralight-S" d="M211,56 l0,110" />
        <path id="right-margin-Ultralight-S" d="M319,56 l0,110" />
        <path id="left-margin-Regular-S" d="M411,56 l0,110" />
        <path id="right-margin-Regular-S" d="M519,56 l0,110" />
        <path id="left-margin-Black-S" d="M611,56 l0,110" />
        <path id="right-margin-Black-S" d="M719,56 l0,110" />
        <path id="Capline-M" d="M18,276 l800,0" />
        <path id="Baseline-M" d="M18,346 l800,0" />
        <path id="Capline-L" d="M18,476 l800,0" />
        <path id="Baseline-L" d="M18,546 l800,0" />
    </g>
    <g id="Symbols">
        <g id="Ultralight-S">
            <path d="M246.139,79.664 L233.566,79.664 L233.566,92.2 L246.139,92.2 L246.139,79.664 Z" />
            <path d="M296.424,79.664 L283.851,79.664 L283.851,92.2 L296.424,92.2 L296.424,79.664 Z" />
            <path d="M258.708,92.201 L233.566,92.201 L233.566,104.737 L258.708,104.737 L258.708,92.201 Z" />
            <path d="M296.427,92.201 L271.285,92.201 L271.285,104.737 L296.427,104.737 L296.427,92.201 Z" />
            <path d="M296.419,104.731 L233.566,104.731 L233.566,117.267 L296.419,117.267 L296.419,104.731 Z" />
            <path d="M246.139,117.268 L233.566,117.268 L233.566,129.804 L246.139,129.804 L246.139,117.268 Z" />
            <path d="M271.285,117.268 L258.712,117.268 L258.712,129.804 L271.285,129.804 L271.285,117.268 Z" />
            <path d="M296.424,117.268 L283.851,117.268 L283.851,129.804 L296.424,129.804 L296.424,117.268 Z" />
            <path d="M258.711,129.8 L221,129.8 L221,142.336 L258.711,142.336 L258.711,129.8 Z" />
            <path d="M309,129.8 L271.285,129.8 L271.285,142.336 L309,142.336 L309,129.8 Z" />
        </g>
        <g id="Regular-S">
            <path d="M446.139,79.664 L433.566,79.664 L433.566,92.2 L446.139,92.2 L446.139,79.664 Z" />
            <path d="M496.424,79.664 L483.851,79.664 L483.851,92.2 L496.424,92.2 L496.424,79.664 Z" />
            <path d="M458.708,92.201 L433.566,92.201 L433.566,104.737 L458.708,104.737 L458.708,92.201 Z" />
            <path d="M496.427,92.201 L471.285,92.201 L471.285,104.737 L496.427,104.737 L496.427,92.201 Z" />
            <path d="M496.419,104.731 L433.566,104.731 L433.566,117.267 L496.419,117.267 L496.419,104.731 Z" />
            <path d="M446.139,117.268 L433.566,117.268 L433.566,129.804 L446.139,129.804 L446.139,117.268 Z" />
            <path d="M471.285,117.268 L458.712,117.268 L458.712,129.804 L471.285,129.804 L471.285,117.268 Z" />
            <path d="M496.424,117.268 L483.851,117.268 L483.851,129.804 L496.424,129.804 L496.424,117.268 Z" />
            <path d="M458.711,129.8 L421,129.8 L421,142.336 L458.711,142.336 L458.711,129.8 Z" />
            <path d="M509,129.8 L471.285,129.8 L471.285,142.336 L509,142.336 L509,129.8 Z" />
        </g>
        <g id="Black-S">
            <path d="M646.139,79.664 L633.566,79.664 L633.566,92.2 L646.139,92.2 L646.139,79.664 Z" />
            <path d="M696.424,79.664 L683.851,79.664 L683.851,92.2 L696.424,92.2 L696.424,79.664 Z" />
            <path d="M658.708,92.201 L633.566,92.201 L633.566,104.737 L658.708,104.737 L658.708,92.201 Z" />
            <path d="M696.427,92.201 L671.285,92.201 L671.285,104.737 L696.427,104.737 L696.427,92.201 Z" />
            <path d="M696.419,104.731 L633.566,104.731 L633.566,117.267 L696.419,117.267 L696.419,104.731 Z" />
            <path d="M646.139,117.268 L633.566,117.268 L633.566,129.804 L646.139,129.804 L646.139,117.268 Z" />
            <path d="M671.285,117.268 L658.712,117.268 L658.712,129.804 L671.285,129.804 L671.285,117.268 Z" />
            <path d="M696.424,117.268 L683.851,117.268 L683.851,129.804 L696.424,129.804 L696.424,117.268 Z" />
            <path d="M658.711,129.8 L621,129.8 L621,142.336 L658.711,142.336 L658.711,129.8 Z" />
            <path d="M709,129.8 L671.285,129.8 L671.285,142.336 L709,142.336 L709,129.8 Z" />
        </g>
    </g>
</svg>