<?xml version="1.0" encoding="UTF-8"?>
<svg height="600" width="800" xmlns="http://www.w3.org/2000/svg" xmlns:xlink="http://www.w3.org/1999/xlink">
    <g id="Notes" font-family="'LucidaGrande', 'Lucida Grande', sans-serif" font-size="13">
        <rect fill="white" height="600.0" width="800.0" x="0.0" y="0.0" />
        <g font-size="13">
            <text x="18.0" y="176.0">Small</text>
            <text x="18.0" y="376.0">Medium</text>
            <text x="18.0" y="576.0">Large</text>
        </g>
        <g font-size="9">
            <text x="250.0" y="30.0">Ultralight</text>
            <text x="450.0" y="30.0">Regular</text>
            <text x="650.0" y="30.0">Black</text>
            <text id="template-version" fill="#505050" text-anchor="end" x="785.0" y="575.0">Template v.3.0</text>
            <a href="https://wangchujiang.com/#/app">
                <text fill="#505050" text-anchor="end" x="785.0" y="590.0">https://wangchujiang.com/#/app</text>
            </a>
        </g>
    </g>
    <g id="Guides" stroke="rgb(39, 170, 225)" stroke-width="0.5">
        <path id="Capline-S" d="M18,76 l800,0" />
        <path id="H-reference" d="M85,145.755 L87.685,145.755 L113.369,79.287 L114.052,79.287 L114.052,76 L112.148,76 L85,145.755 Z M95.693,121.536 L130.996,121.536 L130.263,119.313 L96.474,119.313 L95.693,121.536 Z M139.15,145.755 L141.787,145.755 L114.638,76 L113.466,76 L113.466,79.287 L139.15,145.755 Z" stroke="none" />
        <path id="Baseline-S" d="M18,146 l800,0" />
        <path id="left-margin-Ultralight-S" d="M217.556,56 l0,110" />
        <path id="right-margin-Ultralight-S" d="M312.444,56 l0,110" />
        <path id="left-margin-Regular-S" d="M417.556,56 l0,110" />
        <path id="right-margin-Regular-S" d="M512.444,56 l0,110" />
        <path id="left-margin-Black-S" d="M617.556,56 l0,110" />
        <path id="right-margin-Black-S" d="M712.444,56 l0,110" />
        <path id="Capline-M" d="M18,276 l800,0" />
        <path id="Baseline-M" d="M18,346 l800,0" />
        <path id="Capline-L" d="M18,476 l800,0" />
        <path id="Baseline-L" d="M18,546 l800,0" />
    </g>
    <g id="Symbols">
        <g id="Ultralight-S">
            <path d="M288.349,91.92 C288.892,91.224 289.369,90.587 289.872,89.97 C290.106,89.68 290.086,89.46 289.859,89.157 C287.676,86.287 287.469,83.1 288.726,79.867 C289.669,77.434 291.756,76.294 294.306,76.05 C295.896,75.9 297.456,76.064 298.902,76.837 C300.802,77.854 301.909,79.404 302.269,81.544 C302.556,83.25 302.502,84.917 302.019,86.57 C301.162,89.497 299.059,91.014 296.176,91.397 C293.782,91.717 291.356,91.757 288.942,91.92 C288.756,91.934 288.566,91.92 288.349,91.92 Z" />
            <path d="M282.429,78.814 L268.009,78.814 L256.593,104.847 L240.453,104.847 L240.453,78.927 L227.556,78.927 L227.556,146 L240.456,146 L240.456,117.743 L263.202,117.743 C267.126,117.743 270.692,115.468 272.346,111.91 L272.346,146 L285.246,146 L285.246,117.743 C285.246,110.982 280.027,105.369 273.285,104.877 L273.285,104.843 L266.202,104.843 C269.652,103.665 272.456,101.105 273.945,97.777 L282.428,78.814 Z" />
        </g>
        <g id="Regular-S">
            <path d="M488.349,91.92 C488.892,91.224 489.369,90.587 489.872,89.97 C490.106,89.68 490.086,89.46 489.859,89.157 C487.676,86.287 487.469,83.1 488.726,79.867 C489.669,77.434 491.756,76.294 494.306,76.05 C495.896,75.9 497.456,76.064 498.902,76.837 C500.802,77.854 501.909,79.404 502.269,81.544 C502.556,83.25 502.502,84.917 502.019,86.57 C501.162,89.497 499.059,91.014 496.176,91.397 C493.782,91.717 491.356,91.757 488.942,91.92 C488.756,91.934 488.566,91.92 488.349,91.92 Z" />
            <path d="M482.429,78.814 L468.009,78.814 L456.593,104.847 L440.453,104.847 L440.453,78.927 L427.556,78.927 L427.556,146 L440.456,146 L440.456,117.743 L463.202,117.743 C467.126,117.743 470.692,115.468 472.346,111.91 L472.346,146 L485.246,146 L485.246,117.743 C485.246,110.982 480.027,105.369 473.285,104.877 L473.285,104.843 L466.202,104.843 C469.652,103.665 472.456,101.105 473.945,97.777 L482.428,78.814 Z" />
        </g>
        <g id="Black-S">
            <path d="M688.349,91.92 C688.892,91.224 689.369,90.587 689.872,89.97 C690.106,89.68 690.086,89.46 689.859,89.157 C687.676,86.287 687.469,83.1 688.726,79.867 C689.669,77.434 691.756,76.294 694.306,76.05 C695.896,75.9 697.456,76.064 698.902,76.837 C700.802,77.854 701.909,79.404 702.269,81.544 C702.556,83.25 702.502,84.917 702.019,86.57 C701.162,89.497 699.059,91.014 696.176,91.397 C693.782,91.717 691.356,91.757 688.942,91.92 C688.756,91.934 688.566,91.92 688.349,91.92 Z" />
            <path d="M682.429,78.814 L668.009,78.814 L656.593,104.847 L640.453,104.847 L640.453,78.927 L627.556,78.927 L627.556,146 L640.456,146 L640.456,117.743 L663.203,117.743 C667.125,117.743 670.692,115.468 672.346,111.91 L672.346,146 L685.246,146 L685.246,117.743 C685.246,110.982 680.027,105.369 673.285,104.877 L673.285,104.843 L666.202,104.843 C669.652,103.665 672.456,101.105 673.945,97.777 L682.428,78.814 Z" />
        </g>
    </g>
</svg>