<?xml version="1.0" encoding="UTF-8"?>
<svg height="600" width="800" xmlns="http://www.w3.org/2000/svg" xmlns:xlink="http://www.w3.org/1999/xlink">
    <g id="Notes" font-family="'LucidaGrande', 'Lucida Grande', sans-serif" font-size="13">
        <rect fill="white" height="600.0" width="800.0" x="0.0" y="0.0" />
        <g font-size="13">
            <text x="18.0" y="176.0">Small</text>
            <text x="18.0" y="376.0">Medium</text>
            <text x="18.0" y="576.0">Large</text>
        </g>
        <g font-size="9">
            <text x="250.0" y="30.0">Ultralight</text>
            <text x="450.0" y="30.0">Regular</text>
            <text x="650.0" y="30.0">Black</text>
            <text id="template-version" fill="#505050" text-anchor="end" x="785.0" y="575.0">Template v.3.0</text>
            <a href="https://wangchujiang.com/#/app">
                <text fill="#505050" text-anchor="end" x="785.0" y="590.0">https://wangchujiang.com/#/app</text>
            </a>
        </g>
    </g>
    <g id="Guides" stroke="rgb(39, 170, 225)" stroke-width="0.5">
        <path id="Capline-S" d="M18,76 l800,0" />
        <path id="H-reference" d="M85,145.755 L87.685,145.755 L113.369,79.287 L114.052,79.287 L114.052,76 L112.148,76 L85,145.755 Z M95.693,121.536 L130.996,121.536 L130.263,119.313 L96.474,119.313 L95.693,121.536 Z M139.15,145.755 L141.787,145.755 L114.638,76 L113.466,76 L113.466,79.287 L139.15,145.755 Z" stroke="none" />
        <path id="Baseline-S" d="M18,146 l800,0" />
        <path id="left-margin-Ultralight-S" d="M220.001,56 l0,110" />
        <path id="right-margin-Ultralight-S" d="M309.999,56 l0,110" />
        <path id="left-margin-Regular-S" d="M420.001,56 l0,110" />
        <path id="right-margin-Regular-S" d="M509.999,56 l0,110" />
        <path id="left-margin-Black-S" d="M620.001,56 l0,110" />
        <path id="right-margin-Black-S" d="M709.999,56 l0,110" />
        <path id="Capline-M" d="M18,276 l800,0" />
        <path id="Baseline-M" d="M18,346 l800,0" />
        <path id="Capline-L" d="M18,476 l800,0" />
        <path id="Baseline-L" d="M18,546 l800,0" />
    </g>
    <g id="Symbols">
        <g id="Ultralight-S">
            <path d="M295.383,104.649 C296.991,99.882 296.435,94.651 293.862,90.328 C289.99,83.678 282.21,80.255 274.612,81.865 C271.208,78.096 266.356,75.962 261.277,76.001 C253.511,75.985 246.619,80.92 244.23,88.212 C239.261,89.207 234.959,92.287 232.416,96.669 C228.514,103.295 229.407,111.693 234.614,117.351 C233.005,122.118 233.559,127.351 236.132,131.675 C240.004,138.325 247.784,141.745 255.382,140.139 C258.784,143.907 263.636,146.04 268.713,145.999 C276.486,146.019 283.381,141.08 285.771,133.781 C290.743,132.787 295.048,129.704 297.591,125.318 C301.485,118.693 300.59,110.301 295.386,104.646 L295.386,104.649 Z M268.716,141.424 C265.613,141.432 262.604,140.358 260.205,138.389 C260.313,138.331 260.501,138.23 260.625,138.153 L274.752,130.103 C275.47,129.703 275.914,128.943 275.91,128.121 L275.91,108.47 L281.883,111.872 C281.946,111.904 281.988,111.964 281.997,112.031 L281.997,128.306 C281.988,135.541 276.047,141.408 268.716,141.424 Z M240.154,129.391 C238.597,126.742 238.035,123.625 238.569,120.599 C238.671,120.663 238.856,120.774 238.986,120.848 L253.113,128.897 C253.829,129.311 254.717,129.311 255.436,128.897 L272.681,119.072 L272.681,125.875 C272.684,125.946 272.652,126.013 272.595,126.056 L258.315,134.189 C251.955,137.803 243.832,135.652 240.157,129.384 L240.154,129.384 Z M236.434,98.96 C237.997,96.294 240.446,94.26 243.355,93.214 L243.348,93.694 L243.348,109.794 C243.344,110.617 243.788,111.378 244.506,111.78 L261.752,121.602 L255.783,125.006 C255.723,125.045 255.647,125.051 255.582,125.022 L241.299,116.88 C234.952,113.253 232.775,105.241 236.431,98.967 L236.434,98.967 Z M285.488,110.224 L268.242,100.398 L274.211,97 C274.271,96.961 274.346,96.954 274.412,96.981 L288.695,105.117 C295.052,108.744 297.231,116.769 293.56,123.04 C291.995,125.704 289.548,127.738 286.643,128.789 L286.643,112.209 C286.647,111.387 286.204,110.628 285.488,110.227 Z M291.428,101.401 C291.289,101.316 291.149,101.233 291.008,101.152 L276.881,93.102 C276.163,92.689 275.279,92.689 274.561,93.102 L257.316,102.928 L257.316,96.125 C257.313,96.054 257.345,95.987 257.402,95.944 L271.679,87.814 C278.042,84.197 286.172,86.351 289.837,92.628 C291.387,95.279 291.95,98.384 291.425,101.401 L291.428,101.401 Z M254.071,113.523 L248.099,110.125 C248.035,110.094 247.992,110.033 247.984,109.963 L247.984,93.688 C247.987,86.443 253.944,80.573 261.287,80.579 C264.392,80.579 267.396,81.655 269.786,83.614 C269.677,83.672 269.493,83.774 269.369,83.847 L255.242,91.897 C254.522,92.297 254.077,93.056 254.08,93.879 L254.071,113.52 L254.071,113.526 Z M257.316,106.625 L264.997,102.25 L272.678,106.625 L272.678,115.375 L264.997,119.75 L257.313,115.375 L257.313,106.625 Z" />
        </g>
        <g id="Regular-S">
            <path d="M495.383,104.649 C496.991,99.882 496.435,94.651 493.862,90.328 C489.99,83.678 482.21,80.255 474.612,81.865 C471.208,78.096 466.356,75.962 461.277,76.001 C453.511,75.985 446.619,80.92 444.23,88.212 C439.261,89.207 434.959,92.287 432.416,96.669 C428.514,103.295 429.407,111.693 434.614,117.351 C433.005,122.118 433.559,127.351 436.132,131.675 C440.004,138.325 447.784,141.745 455.382,140.139 C458.784,143.907 463.636,146.04 468.713,145.999 C476.486,146.019 483.381,141.08 485.771,133.781 C490.743,132.787 495.048,129.704 497.591,125.318 C501.485,118.693 500.59,110.301 495.386,104.646 L495.386,104.649 Z M468.716,141.424 C465.613,141.432 462.604,140.358 460.205,138.389 C460.313,138.331 460.501,138.23 460.625,138.153 L474.752,130.103 C475.47,129.703 475.914,128.943 475.91,128.121 L475.91,108.47 L481.883,111.872 C481.946,111.904 481.988,111.964 481.997,112.031 L481.997,128.306 C481.988,135.541 476.047,141.408 468.716,141.424 Z M440.154,129.391 C438.597,126.742 438.035,123.625 438.569,120.599 C438.671,120.663 438.856,120.774 438.986,120.848 L453.113,128.897 C453.829,129.311 454.717,129.311 455.436,128.897 L472.681,119.072 L472.681,125.875 C472.684,125.946 472.652,126.013 472.595,126.056 L458.315,134.189 C451.955,137.803 443.832,135.652 440.157,129.384 L440.154,129.384 Z M436.434,98.96 C437.997,96.294 440.446,94.26 443.355,93.214 L443.348,93.694 L443.348,109.794 C443.344,110.617 443.788,111.378 444.506,111.78 L461.752,121.602 L455.783,125.006 C455.723,125.045 455.647,125.051 455.582,125.022 L441.299,116.88 C434.952,113.253 432.775,105.241 436.431,98.967 L436.434,98.967 Z M485.488,110.224 L468.242,100.398 L474.211,97 C474.271,96.961 474.346,96.954 474.412,96.981 L488.695,105.117 C495.052,108.744 497.231,116.769 493.56,123.04 C491.995,125.704 489.548,127.738 486.643,128.789 L486.643,112.209 C486.647,111.387 486.204,110.628 485.488,110.227 Z M491.428,101.401 C491.289,101.316 491.149,101.233 491.008,101.152 L476.881,93.102 C476.163,92.689 475.279,92.689 474.561,93.102 L457.316,102.928 L457.316,96.125 C457.313,96.054 457.345,95.987 457.402,95.944 L471.679,87.814 C478.042,84.197 486.172,86.351 489.837,92.628 C491.387,95.279 491.95,98.384 491.425,101.401 L491.428,101.401 Z M454.071,113.523 L448.099,110.125 C448.035,110.094 447.992,110.033 447.984,109.963 L447.984,93.688 C447.987,86.443 453.944,80.573 461.287,80.579 C464.392,80.579 467.396,81.655 469.786,83.614 C469.677,83.672 469.493,83.774 469.369,83.847 L455.242,91.897 C454.522,92.297 454.077,93.056 454.08,93.879 L454.071,113.52 L454.071,113.526 Z M457.316,106.625 L464.997,102.25 L472.678,106.625 L472.678,115.375 L464.997,119.75 L457.313,115.375 L457.313,106.625 Z" />
        </g>
        <g id="Black-S">
            <path d="M695.383,104.649 C696.991,99.882 696.435,94.651 693.862,90.328 C689.99,83.678 682.21,80.255 674.612,81.865 C671.208,78.096 666.356,75.962 661.277,76.001 C653.511,75.985 646.619,80.92 644.23,88.212 C639.261,89.207 634.959,92.287 632.416,96.669 C628.514,103.295 629.407,111.693 634.614,117.351 C633.005,122.118 633.559,127.351 636.132,131.675 C640.004,138.325 647.784,141.745 655.382,140.139 C658.784,143.907 663.636,146.04 668.713,145.999 C676.486,146.019 683.381,141.08 685.771,133.781 C690.743,132.787 695.048,129.704 697.591,125.318 C701.485,118.693 700.59,110.301 695.386,104.646 L695.386,104.649 Z M668.716,141.424 C665.613,141.432 662.604,140.358 660.205,138.389 C660.313,138.331 660.501,138.23 660.625,138.153 L674.752,130.103 C675.47,129.703 675.914,128.943 675.91,128.121 L675.91,108.47 L681.883,111.872 C681.946,111.904 681.988,111.964 681.997,112.031 L681.997,128.306 C681.988,135.541 676.047,141.408 668.716,141.424 Z M640.154,129.391 C638.597,126.742 638.035,123.625 638.569,120.599 C638.671,120.663 638.856,120.774 638.986,120.848 L653.113,128.897 C653.829,129.311 654.717,129.311 655.436,128.897 L672.681,119.072 L672.681,125.875 C672.684,125.946 672.652,126.013 672.595,126.056 L658.315,134.189 C651.955,137.803 643.832,135.652 640.157,129.384 L640.154,129.384 Z M636.434,98.96 C637.997,96.294 640.446,94.26 643.355,93.214 L643.348,93.694 L643.348,109.794 C643.344,110.617 643.788,111.378 644.506,111.78 L661.752,121.602 L655.783,125.006 C655.723,125.045 655.647,125.051 655.582,125.022 L641.299,116.88 C634.952,113.253 632.775,105.241 636.431,98.967 L636.434,98.967 Z M685.488,110.224 L668.242,100.398 L674.211,97 C674.271,96.961 674.346,96.954 674.412,96.981 L688.695,105.117 C695.052,108.744 697.231,116.769 693.56,123.04 C691.995,125.704 689.548,127.738 686.643,128.789 L686.643,112.209 C686.647,111.387 686.204,110.628 685.488,110.227 Z M691.428,101.401 C691.289,101.316 691.149,101.233 691.008,101.152 L676.881,93.102 C676.163,92.689 675.279,92.689 674.561,93.102 L657.316,102.928 L657.316,96.125 C657.313,96.054 657.345,95.987 657.402,95.944 L671.679,87.814 C678.042,84.197 686.172,86.351 689.837,92.628 C691.387,95.279 691.95,98.384 691.425,101.401 L691.428,101.401 Z M654.071,113.523 L648.099,110.125 C648.035,110.094 647.992,110.033 647.984,109.963 L647.984,93.688 C647.987,86.443 653.943,80.573 661.287,80.579 C664.392,80.579 667.396,81.655 669.786,83.614 C669.677,83.672 669.493,83.774 669.369,83.847 L655.242,91.897 C654.522,92.297 654.077,93.056 654.08,93.879 L654.071,113.52 L654.071,113.526 Z M657.316,106.625 L664.997,102.25 L672.678,106.625 L672.678,115.375 L664.997,119.75 L657.313,115.375 L657.313,106.625 Z" />
        </g>
    </g>
</svg>